<?xml version="1.0" standalone="no"?><!DOCTYPE svg PUBLIC "-//W3C//DTD SVG 1.1//EN" "http://www.w3.org/Graphics/SVG/1.1/DTD/svg11.dtd"><svg t="1656821491283" class="icon" viewBox="0 0 1024 1024" version="1.1" xmlns="http://www.w3.org/2000/svg" p-id="2326" width="48" height="48" xmlns:xlink="http://www.w3.org/1999/xlink"><defs><style type="text/css">@font-face { font-family: feedback-iconfont; src: url("//at.alicdn.com/t/font_1031158_u69w8yhxdu.woff2?t=1630033759944") format("woff2"), url("//at.alicdn.com/t/font_1031158_u69w8yhxdu.woff?t=1630033759944") format("woff"), url("//at.alicdn.com/t/font_1031158_u69w8yhxdu.ttf?t=1630033759944") format("truetype"); }
</style></defs><path d="M510.293333 759.466667zM512 34.133333C247.466667 34.133333 34.133333 247.466667 34.133333 512s213.333333 477.866667 477.866667 477.866667 477.866667-213.333333 477.866667-477.866667S776.533333 34.133333 512 34.133333z m182.613333 573.44l-158.72 158.72c-5.12 5.12-11.946667 8.533333-20.48 10.24h-6.826666c-1.706667 0-3.413333 0-5.12-1.706666l-5.12-1.706667c-5.12-1.706667-8.533333-5.12-11.946667-8.533333l-158.72-158.72c-13.653333-13.653333-13.653333-34.133333 0-47.786667 13.653333-13.653333 34.133333-13.653333 47.786667 0l100.693333 100.693333V281.6c0-18.773333 15.36-34.133333 34.133333-34.133333s34.133333 15.36 34.133334 34.133333v377.173333l100.693333-100.693333c13.653333-13.653333 34.133333-13.653333 47.786667 0 15.36 13.653333 15.36 35.84 1.706666 49.493333z" fill="#4f8bae" p-id="2327"></path></svg>